<?xml version="1.0" encoding="UTF-8" standalone="no"?>
<!-- Created with Inkscape (http://www.inkscape.org/) -->
<svg
   xmlns:dc="http://purl.org/dc/elements/1.1/"
   xmlns:cc="http://web.resource.org/cc/"
   xmlns:rdf="http://www.w3.org/1999/02/22-rdf-syntax-ns#"
   xmlns:svg="http://www.w3.org/2000/svg"
   xmlns="http://www.w3.org/2000/svg"
   xmlns:sodipodi="http://sodipodi.sourceforge.net/DTD/sodipodi-0.dtd"
   xmlns:inkscape="http://www.inkscape.org/namespaces/inkscape"
   width="744.09448819"
   height="1052.3622047"
   id="svg2"
   sodipodi:version="0.32"
   inkscape:version="0.45.1"
   sodipodi:docbase="/home/willi/Pictures/Experiments"
   sodipodi:docname="kite_pattern.svg"
   inkscape:output_extension="org.inkscape.output.svg.inkscape"
   inkscape:export-filename="/home/willi/Pictures/Experiments/kite_pattern.png"
   inkscape:export-xdpi="12.095238"
   inkscape:export-ydpi="12.095238">
  <defs
     id="defs4" />
  <sodipodi:namedview
     id="base"
     pagecolor="#ffffff"
     bordercolor="#666666"
     borderopacity="1.0"
     gridtolerance="10000"
     guidetolerance="10"
     objecttolerance="10"
     inkscape:pageopacity="0.0"
     inkscape:pageshadow="2"
     inkscape:zoom="0.35"
     inkscape:cx="91.840963"
     inkscape:cy="488.02796"
     inkscape:document-units="px"
     inkscape:current-layer="layer1"
     inkscape:window-width="1302"
     inkscape:window-height="826"
     inkscape:window-x="0"
     inkscape:window-y="24" />
  <metadata
     id="metadata7">
    <rdf:RDF>
      <cc:Work
         rdf:about="">
        <dc:format>image/svg+xml</dc:format>
        <dc:type
           rdf:resource="http://purl.org/dc/dcmitype/StillImage" />
      </cc:Work>
    </rdf:RDF>
  </metadata>
  <g
     inkscape:label="Layer 1"
     inkscape:groupmode="layer"
     id="layer1">
    <g
       id="g3186"
       transform="translate(740.98129,136.32642)">
      <path
         id="path2160"
         d="M 346.42857,255.93361 L 346.42857,580.21932"
         style="fill:none;fill-rule:evenodd;stroke:#c85d3e;stroke-width:1;stroke-linecap:butt;stroke-linejoin:miter;stroke-miterlimit:4;stroke-dasharray:1, 1;stroke-dashoffset:0;stroke-opacity:1" />
      <path
         id="path2162"
         d="M 187.14286,417.36218 L 562.85714,417.36218"
         style="fill:none;fill-rule:evenodd;stroke:#c85d3e;stroke-width:1;stroke-linecap:butt;stroke-linejoin:miter;stroke-miterlimit:4;stroke-dasharray:1, 1;stroke-dashoffset:0;stroke-opacity:1" />
      <path
         id="path2164"
         d="M 345.71429,260.93361 L 180.2363,547.54989"
         style="fill:none;fill-rule:evenodd;stroke:#c85d3e;stroke-width:1;stroke-linecap:butt;stroke-linejoin:miter;stroke-miterlimit:4;stroke-dasharray:1, 1;stroke-dashoffset:0;stroke-opacity:1" />
      <path
         id="path2166"
         d="M 241.42857,393.79075 L 376.61788,627.9455"
         style="fill:none;fill-rule:evenodd;stroke:#c85d3e;stroke-width:1;stroke-linecap:butt;stroke-linejoin:miter;stroke-miterlimit:4;stroke-dasharray:1, 1;stroke-dashoffset:0;stroke-opacity:1" />
      <path
         id="path2168"
         d="M 327.14286,608.79075 L 460.35506,378.06045"
         style="fill:none;fill-rule:evenodd;stroke:#c85d3e;stroke-width:1;stroke-linecap:butt;stroke-linejoin:miter;stroke-miterlimit:4;stroke-dasharray:1, 1;stroke-dashoffset:0;stroke-opacity:1" />
      <path
         id="path2170"
         d="M 470,474.50504 L 333.42059,237.94256"
         style="fill:none;fill-rule:evenodd;stroke:#c85d3e;stroke-width:1;stroke-linecap:butt;stroke-linejoin:miter;stroke-miterlimit:4;stroke-dasharray:1, 1;stroke-dashoffset:0;stroke-opacity:1" />
      <path
         sodipodi:nodetypes="ccccc"
         d="M 255.22319,417.61131 C 292.00772,450.34194 329.51369,504.43658 346.09105,575.16945 C 362.66764,504.44101 400.07988,450.89717 437.00277,417.71009 C 400.13179,384.36239 362.48738,331.45099 345.79041,260.35257 C 329.30712,331.45099 291.74612,384.70081 255.22319,417.61131 z "
         style="fill:none;fill-rule:evenodd;stroke:#000000;stroke-width:1px;stroke-linecap:butt;stroke-linejoin:miter;stroke-opacity:1"
         id="path2172" />
    </g>
    <path
       sodipodi:nodetypes="ccccc"
       d="M -91.259135,0.41831111 C -54.474606,33.148941 -16.968636,87.243581 -0.3912758,157.97645 C 16.185314,87.248011 53.597554,33.704171 90.520444,0.51709111 C 53.649464,-32.830609 16.005054,-85.742009 -0.6919158,-156.84043 C -17.175206,-85.742009 -54.736206,-32.492189 -91.259135,0.41831111 z "
       style="fill:#6c91db;fill-opacity:1;fill-rule:evenodd;stroke:none;stroke-width:1px;stroke-linecap:butt;stroke-linejoin:miter;stroke-opacity:1"
       id="path3184" />
    <path
       id="path3195"
       style="fill:#6c91db;fill-opacity:1;fill-rule:evenodd;stroke:none;stroke-width:1px;stroke-linecap:butt;stroke-linejoin:miter;stroke-opacity:1"
       d="M 654.23344,0.41831111 C 691.01797,33.148941 728.52394,87.243581 745.1013,157.97645 C 761.67789,87.248011 799.09013,33.704171 836.01302,0.51709111 C 799.14204,-32.830609 761.49763,-85.742009 744.80066,-156.84043 C 728.31737,-85.742009 690.75637,-32.492189 654.23344,0.41831111 z "
       sodipodi:nodetypes="ccccc" />
    <path
       sodipodi:nodetypes="ccccc"
       d="M 654.23344,1052.9973 C 691.01797,1085.7279 728.52394,1139.8225 745.1013,1210.5554 C 761.67789,1139.827 799.09013,1086.2831 836.01302,1053.096 C 799.14204,1019.7483 761.49763,966.83694 744.80066,895.73852 C 728.31737,966.83694 690.75637,1020.0868 654.23344,1052.9973 z "
       style="fill:#6c91db;fill-opacity:1;fill-rule:evenodd;stroke:none;stroke-width:1px;stroke-linecap:butt;stroke-linejoin:miter;stroke-opacity:1"
       id="path3197" />
    <path
       id="path3199"
       style="fill:#6c91db;fill-opacity:1;fill-rule:evenodd;stroke:none;stroke-width:1px;stroke-linecap:butt;stroke-linejoin:miter;stroke-opacity:1"
       d="M -90.248986,1052.9973 C -53.464456,1085.7279 -15.958486,1139.8225 0.61887408,1210.5554 C 17.195464,1139.827 54.607704,1086.2831 91.530594,1053.096 C 54.659614,1019.7483 17.015204,966.83694 0.31823408,895.73852 C -16.165056,966.83694 -53.726056,1020.0868 -90.248986,1052.9973 z "
       sodipodi:nodetypes="ccccc" />
    <path
       sodipodi:nodetypes="ccccc"
       d="M 281.48716,526.70783 C 318.27169,559.43843 355.77765,613.53303 372.35501,684.26593 C 388.9316,613.53753 426.34384,559.99363 463.26673,526.80653 C 426.39575,493.45883 388.75134,440.54747 372.05437,369.44905 C 355.57108,440.54747 318.01009,493.79733 281.48716,526.70783 z "
       style="fill:#6c91db;fill-opacity:1;fill-rule:evenodd;stroke:none;stroke-width:1px;stroke-linecap:butt;stroke-linejoin:miter;stroke-opacity:1"
       id="path3221" />
  </g>
</svg>
