<?xml version="1.0" encoding="UTF-8" standalone="no"?>
<!-- Created with Inkscape (http://www.inkscape.org/) -->

<svg
   xmlns:dc="http://purl.org/dc/elements/1.1/"
   xmlns:cc="http://creativecommons.org/ns#"
   xmlns:rdf="http://www.w3.org/1999/02/22-rdf-syntax-ns#"
   xmlns:svg="http://www.w3.org/2000/svg"
   xmlns="http://www.w3.org/2000/svg"
   xmlns:sodipodi="http://sodipodi.sourceforge.net/DTD/sodipodi-0.dtd"
   xmlns:inkscape="http://www.inkscape.org/namespaces/inkscape"
   width="744.09448819"
   height="1052.3622047"
   id="svg2837"
   version="1.1"
   inkscape:version="0.47 r22583"
   sodipodi:docname="wb.svg">
  <defs
     id="defs2839">
    <inkscape:perspective
       sodipodi:type="inkscape:persp3d"
       inkscape:vp_x="0 : 526.18109 : 1"
       inkscape:vp_y="0 : 1000 : 0"
       inkscape:vp_z="744.09448 : 526.18109 : 1"
       inkscape:persp3d-origin="372.04724 : 350.78739 : 1"
       id="perspective2845" />
    <inkscape:perspective
       id="perspective2831"
       inkscape:persp3d-origin="0.5 : 0.33333333 : 1"
       inkscape:vp_z="1 : 0.5 : 1"
       inkscape:vp_y="0 : 1000 : 0"
       inkscape:vp_x="0 : 0.5 : 1"
       sodipodi:type="inkscape:persp3d" />
  </defs>
  <sodipodi:namedview
     id="base"
     pagecolor="#ffffff"
     bordercolor="#666666"
     borderopacity="1.0"
     inkscape:pageopacity="0.0"
     inkscape:pageshadow="2"
     inkscape:zoom="0.35"
     inkscape:cx="375"
     inkscape:cy="520"
     inkscape:document-units="px"
     inkscape:current-layer="layer1"
     showgrid="false"
     inkscape:window-width="605"
     inkscape:window-height="489"
     inkscape:window-x="0"
     inkscape:window-y="381"
     inkscape:window-maximized="0" />
  <metadata
     id="metadata2842">
    <rdf:RDF>
      <cc:Work
         rdf:about="">
        <dc:format>image/svg+xml</dc:format>
        <dc:type
           rdf:resource="http://purl.org/dc/dcmitype/StillImage" />
        <dc:title></dc:title>
      </cc:Work>
    </rdf:RDF>
  </metadata>
  <g
     inkscape:label="Layer 1"
     inkscape:groupmode="layer"
     id="layer1">
    <g
       id="g2298"
       transform="matrix(1.1788316,0,0,1.1788316,205.76731,403.38603)"
       style="fill:#5a80cc;fill-opacity:1;stroke:none"
       inkscape:export-filename="/home/willi/Programs/google_appengine/projects/static-web/static/img/favicon.ico.png"
       inkscape:export-xdpi="55.605827"
       inkscape:export-ydpi="55.605827">
      <path
         id="text2186"
         style="font-size:48px;font-style:normal;font-weight:normal;stroke:none;font-family:Cardo"
         d="m 139.14286,94.294113 -6.39844,15.023437 c -0.17189,0.375 -0.35158,0.60156 -0.53906,0.67969 -0.18752,0.0937 -0.46096,0.14062 -0.82031,0.14062 l -1.10156,0 c -0.37502,0 -0.61721,-0.17968 -0.72657,-0.53906 L 117.13505,79.692551 c -0.0938,-0.234345 -0.29688,-0.460908 -0.60938,-0.679688 -0.29688,-0.218719 -0.63281,-0.414031 -1.00781,-0.585937 -0.35938,-0.187469 -0.71875,-0.343719 -1.07812,-0.46875 -0.34376,-0.124969 -0.60938,-0.210906 -0.79688,-0.257813 -0.10938,-0.03122 -0.24219,-0.06247 -0.39844,-0.09375 -0.15625,-0.04684 -0.3125,-0.0859 -0.46875,-0.117187 -0.14062,-0.03122 -0.27343,-0.05466 -0.39843,-0.07031 -0.125,-0.01559 -0.20313,-0.0234 -0.23438,-0.02344 -0.125,3.2e-5 -0.1875,-0.06247 -0.1875,-0.1875 l 0,-0.5625 c 0,-0.124967 0.0625,-0.187467 0.1875,-0.1875 l 13.35938,0 c 0.0937,3.3e-5 0.14842,0.02347 0.16406,0.07031 0.0156,0.03128 0.0234,0.07035 0.0234,0.117188 l 0,0.5625 c -2e-5,0.03128 -0.0156,0.07034 -0.0469,0.117187 -0.0156,0.04691 -0.0625,0.07035 -0.14062,0.07031 l -0.42188,0 c -0.60939,3.2e-5 -1.10157,0.07034 -1.47656,0.210937 -0.35939,0.140657 -0.64064,0.320344 -0.84375,0.539063 -0.20314,0.203156 -0.33595,0.421906 -0.39844,0.65625 -0.0625,0.234405 -0.0938,0.445342 -0.0937,0.632812 -10e-6,0.34378 0.0469,0.664092 0.14063,0.960938 0.10936,0.296903 0.20311,0.609403 0.28125,0.9375 l 8.97656,21.609379 c 0.0781,0.15626 0.22654,0.23438 0.44531,0.23438 0.0937,0 0.16404,-0.0234 0.21094,-0.0703 0.0469,-0.0469 0.0937,-0.10937 0.14062,-0.1875 l 5.17969,-12.187502 -4.57031,-11.039062 c -0.0938,-0.234345 -0.2969,-0.460908 -0.60938,-0.679688 -0.29689,-0.218719 -0.63283,-0.414031 -1.00781,-0.585937 -0.35939,-0.187469 -0.71877,-0.343719 -1.07812,-0.46875 -0.34377,-0.124969 -0.6094,-0.210906 -0.79688,-0.257813 -0.21877,-0.07809 -0.46877,-0.148405 -0.75,-0.210937 -0.28127,-0.06247 -0.46095,-0.09372 -0.53906,-0.09375 -0.12502,3.2e-5 -0.18752,-0.06247 -0.1875,-0.1875 l 0,-0.5625 c -2e-5,-0.124967 0.0625,-0.187467 0.1875,-0.1875 l 21.46875,0 c 0.0937,3.3e-5 0.1484,0.02347 0.16406,0.07031 0.0156,0.04691 0.0234,0.08597 0.0234,0.117188 l 0,0.5625 c -4e-5,0.04691 -0.008,0.09378 -0.0234,0.140625 -0.0157,0.03128 -0.0704,0.04691 -0.16406,0.04687 l -0.86719,0 c -0.56254,3.2e-5 -1.04691,0.07816 -1.45312,0.234375 -0.40629,0.156281 -0.77348,0.398469 -1.10157,0.726562 -0.31253,0.328156 -0.60159,0.742218 -0.86718,1.242188 -0.26566,0.500029 -0.5391,1.085966 -0.82032,1.757812 l -3.04687,7.148438 6,14.437501 c 0.0781,0.15626 0.22652,0.23438 0.44531,0.23438 0.0937,0 0.16403,-0.0234 0.21094,-0.0703 0.0468,-0.0469 0.0937,-0.10937 0.14062,-0.1875 l 9.91407,-23.320311 c 0.18745,-0.43747 0.2812,-0.804657 0.28125,-1.101563 -5e-5,-0.406218 -0.21099,-0.687468 -0.63282,-0.84375 -0.40629,-0.171843 -1.09379,-0.25778 -2.0625,-0.257812 l -1.45312,0 c -0.12504,3.2e-5 -0.18754,-0.06247 -0.1875,-0.1875 l 0,-0.5625 c -4e-5,-0.03122 0.008,-0.07028 0.0234,-0.117188 0.0156,-0.04684 0.0703,-0.07028 0.16406,-0.07031 l 10.42969,0 c 0.0937,3.3e-5 0.14838,0.02347 0.16406,0.07031 0.0156,0.04691 0.0234,0.08597 0.0234,0.117188 l 0,0.5625 c -6e-5,0.04691 -0.008,0.09378 -0.0234,0.140625 -0.0157,0.03128 -0.0704,0.04691 -0.16406,0.04687 l -1.10157,0 c -0.37505,3.2e-5 -0.69536,0.07816 -0.96093,0.234375 -0.26568,0.140656 -0.50787,0.359406 -0.72657,0.65625 -0.2188,0.296906 -0.43755,0.679718 -0.65625,1.148437 -0.20317,0.453155 -0.43755,0.984404 -0.70312,1.59375 l -11.23924,26.446239 c -0.79793,1.47896 -0.2303,1.68174 2.1198,1.67652 0.21874,3e-5 0.53906,-0.008 0.96094,-0.0234 0.43749,-0.0156 0.92186,-0.0312 1.45312,-0.0469 0.54687,-0.0156 1.11718,-0.0312 1.71094,-0.0469 0.59374,-0.0312 1.16405,-0.0547 1.71094,-0.0703 0.54686,-0.0156 1.03905,-0.0312 1.47656,-0.0469 0.43749,-0.0156 0.78124,-0.0234 1.03125,-0.0234 0.79686,4e-5 1.67967,0.0313 2.64844,0.0937 0.98435,0.0469 1.96873,0.1641 2.95312,0.35157 0.99998,0.18753 1.96873,0.46097 2.90625,0.82031 0.93748,0.34378 1.7656,0.81253 2.48438,1.40625 0.73435,0.57815 1.32028,1.2969 1.75781,2.15625 0.43747,0.8594 0.65622,1.89065 0.65625,3.09375 -3e-5,0.71877 -0.11722,1.37502 -0.35156,1.96875 -0.21878,0.59377 -0.50784,1.12502 -0.86719,1.59375 -0.34378,0.45314 -0.71878,0.85158 -1.125,1.19531 -0.40628,0.32815 -0.78909,0.6094 -1.14844,0.84375 -0.34377,0.21877 -0.64846,0.38283 -0.91406,0.49219 -0.25002,0.10939 -0.39065,0.17189 -0.42188,0.1875 0.89061,0.50002 1.73435,1.04689 2.53125,1.64062 0.81248,0.59377 1.52341,1.26564 2.13282,2.01563 0.60934,0.73439 1.08591,1.54689 1.42968,2.4375 0.35935,0.89063 0.53904,1.87501 0.53907,2.95312 -3e-5,1.26564 -0.17191,2.38282 -0.51563,3.35157 -0.34378,0.96875 -0.7969,1.8125 -1.35937,2.53125 -0.56253,0.71875 -1.21097,1.32812 -1.94532,1.82812 -0.71877,0.48438 -1.46096,0.89063 -2.22656,1.21875 -0.76565,0.3125 -1.53127,0.5625 -2.29687,0.75 -0.75002,0.17188 -1.43752,0.29688 -2.0625,0.375 -0.62502,0.0781 -1.15627,0.125 -1.59375,0.14063 -0.4219,0.0156 -0.69533,0.0234 -0.82032,0.0234 l -16.92187,0 c -0.0781,0 -0.13281,-0.0234 -0.16406,-0.0703 -0.0156,-0.0469 -0.0234,-0.0859 -0.0234,-0.11719 l -0.12095,-0.68179 c -0.0315,-0.28309 0.12876,0.049 0.14439,0.002 0.0312,-0.0469 0.0859,-0.0703 0.16406,-0.0703 0.29687,0 0.67187,-0.0156 1.125,-0.0469 0.45312,-0.0312 0.92968,-0.0859 1.42969,-0.16406 0.51562,-0.0937 1.03124,-0.21875 1.54687,-0.375 0.51562,-0.15625 0.97656,-0.35157 1.38281,-0.58594 0.40625,-0.23438 0.73437,-0.51562 0.98438,-0.84375 0.26562,-0.32812 0.39843,-0.71875 0.39844,-1.17188 l 0,-24.72656 c -0.0625,-0.79685 -0.21876,-1.41403 -0.46875,-1.85156 -0.23438,-0.4531 -0.54688,-0.78903 -0.9375,-1.00781 -0.37501,-0.21872 -0.82032,-0.35154 -1.33594,-0.39844 -0.5,-0.0625 -1.05469,-0.0937 -1.66406,-0.0937 -1.27448,-0.008 -0.40034,0.0204 -1.51463,-0.006 -0.52222,-0.0152 -0.77222,-0.18708 -0.89718,-0.53083 l -6.32813,-15.328124 m 3.51563,-15.796875 c -4e-5,-0.359343 -0.15628,-0.617156 -0.46875,-0.773437 -0.31253,-0.171843 -0.82816,-0.273406 -1.54688,-0.304688 -0.53128,0.03128 -0.96096,0.125032 -1.28906,0.28125 -0.31253,0.140657 -0.55472,0.312532 -0.72656,0.515625 -0.17191,0.187531 -0.28909,0.398469 -0.35157,0.632813 -0.0469,0.21878 -0.0703,0.414092 -0.0703,0.585937 -3e-5,0.34378 0.0468,0.664092 0.14063,0.960938 0.10934,0.296903 0.20309,0.609403 0.28125,0.9375 l 1.47656,3.585937 2.27344,-5.320312 c 0.18746,-0.43747 0.28121,-0.804657 0.28125,-1.101563 m 14.31806,58.685259 c -1e-5,0.60937 0.15624,1.14062 0.46875,1.59375 0.31248,0.45312 0.71092,0.83594 1.19531,1.14843 0.48436,0.3125 1.02342,0.54688 1.61719,0.70313 0.60936,0.15625 1.21092,0.23437 1.80468,0.23437 1.09374,0 2.1328,-0.21875 3.11719,-0.65625 0.99998,-0.45312 1.87498,-1.05468 2.625,-1.80468 0.74998,-0.76563 1.34373,-1.64844 1.78125,-2.64844 0.43748,-1.01562 0.65623,-2.07812 0.65625,-3.1875 -2e-5,-1.32812 -0.24221,-2.51562 -0.72656,-3.5625 -0.46877,-1.06249 -1.11721,-1.95311 -1.94531,-2.67188 -0.82815,-0.73436 -1.80471,-1.28904 -2.92969,-1.66406 -1.12502,-0.39061 -2.33596,-0.58592 -3.63281,-0.58594 l -3.72657,0 c -0.15626,2e-5 -0.25001,0.0313 -0.28125,0.0937 -0.0156,0.0469 -0.0234,0.10158 -0.0234,0.16407 l 0,12.84375 m -0.0469,-15 c -1e-5,0.0469 0.0234,0.13283 0.0703,0.25781 0.0469,0.12502 0.20312,0.18752 0.46875,0.1875 l 5.76563,0 c 0.74998,2e-5 1.44529,-0.14842 2.08594,-0.44531 0.65623,-0.29686 1.21873,-0.70311 1.6875,-1.21875 0.48435,-0.51561 0.85935,-1.11717 1.125,-1.80469 0.28122,-0.68748 0.42185,-1.42185 0.42187,-2.20313 -2e-5,-1.18747 -0.19533,-2.20309 -0.58594,-3.04687 -0.37502,-0.84372 -0.90627,-1.53122 -1.59375,-2.0625 -0.67189,-0.54685 -1.47658,-0.94528 -2.41406,-1.19531 -0.92189,-0.2656 -1.93751,-0.39841 -3.04687,-0.39844 -0.81252,0.0469 -1.47658,0.0703 -1.99219,0.0703 -0.51564,-0.0156 -0.92189,3e-5 -1.21875,0.0469 -0.29689,0.0469 -0.50001,0.14846 -0.60938,0.30468 -0.10938,0.15628 -0.16407,0.4141 -0.16406,0.77344 l 0,10.73438"
         sodipodi:nodetypes="ccsccccscssssssccccsccsccsssssccsscccscssssccccsccsccssscccssccscccccsccsccsccssscccsscssscsccsscssssccccssssccssccsccssssssscccsccccccscssssscccccssssccsscccccscccsccsccscccccsscc" />
    </g>
  </g>
</svg>
