<?xml version="1.0" encoding="UTF-8" standalone="no"?>
<!-- Created with Inkscape (http://www.inkscape.org/) -->
<svg
   xmlns:dc="http://purl.org/dc/elements/1.1/"
   xmlns:cc="http://web.resource.org/cc/"
   xmlns:rdf="http://www.w3.org/1999/02/22-rdf-syntax-ns#"
   xmlns:svg="http://www.w3.org/2000/svg"
   xmlns="http://www.w3.org/2000/svg"
   xmlns:sodipodi="http://sodipodi.sourceforge.net/DTD/sodipodi-0.dtd"
   xmlns:inkscape="http://www.inkscape.org/namespaces/inkscape"
   width="744.09448819"
   height="1052.3622047"
   id="svg2178"
   sodipodi:version="0.32"
   inkscape:version="0.45.1"
   sodipodi:docbase="/home/willi/Pictures/Experiments/web"
   sodipodi:docname="willi_ballenthin.svg"
   inkscape:output_extension="org.inkscape.output.svg.inkscape"
   inkscape:export-filename="/home/willi/Programming/HTML/website2/img/willi_ballenthin.png"
   inkscape:export-xdpi="218.04979"
   inkscape:export-ydpi="218.04979">
  <defs
     id="defs2180">
    <linearGradient
       id="linearGradient3282">
      <stop
         style="stop-color:#000000;stop-opacity:1;"
         offset="0"
         id="stop3284" />
      <stop
         style="stop-color:#000000;stop-opacity:0;"
         offset="1"
         id="stop3286" />
    </linearGradient>
  </defs>
  <sodipodi:namedview
     id="base"
     pagecolor="#ffffff"
     bordercolor="#666666"
     borderopacity="1.0"
     gridtolerance="10000"
     guidetolerance="10"
     objecttolerance="10"
     inkscape:pageopacity="0.0"
     inkscape:pageshadow="2"
     inkscape:zoom="4"
     inkscape:cx="114.78922"
     inkscape:cy="934.9104"
     inkscape:document-units="px"
     inkscape:current-layer="layer1"
     inkscape:window-width="1374"
     inkscape:window-height="783"
     inkscape:window-x="0"
     inkscape:window-y="24" />
  <metadata
     id="metadata2183">
    <rdf:RDF>
      <cc:Work
         rdf:about="">
        <dc:format>image/svg+xml</dc:format>
        <dc:type
           rdf:resource="http://purl.org/dc/dcmitype/StillImage" />
      </cc:Work>
    </rdf:RDF>
  </metadata>
  <g
     inkscape:label="Layer 1"
     inkscape:groupmode="layer"
     id="layer1">
    <g
       id="g2298"
       transform="matrix(1.1788316,0,0,1.1788316,-30.639781,-24.744561)"
       style="fill:#5a80cc;fill-opacity:1;stroke:none;stroke-opacity:1;stroke-width:0.23667503;stroke-miterlimit:4;stroke-dasharray:none">
      <path
         id="text2186"
         style="font-size:48px;font-style:normal;font-weight:normal;stroke:none;stroke-width:0.23667503;stroke-linecap:butt;stroke-linejoin:miter;stroke-opacity:1;font-family:Cardo;stroke-miterlimit:4;stroke-dasharray:none"
         d="M 139.14286,94.294113 L 132.74442,109.31755 C 132.57253,109.69255 132.39284,109.91911 132.20536,109.99724 C 132.01784,110.09099 131.7444,110.13786 131.38505,110.13786 L 130.28349,110.13786 C 129.90847,110.13786 129.66628,109.95818 129.55692,109.5988 L 117.13505,79.692551 C 117.04129,79.458206 116.83817,79.231643 116.52567,79.012863 C 116.22879,78.794144 115.89286,78.598832 115.51786,78.426926 C 115.15848,78.239457 114.79911,78.083207 114.43974,77.958176 C 114.09598,77.833207 113.83036,77.74727 113.64286,77.700363 C 113.53348,77.669145 113.40067,77.637895 113.24442,77.606613 C 113.08817,77.55977 112.93192,77.520708 112.77567,77.489426 C 112.63505,77.458208 112.50224,77.43477 112.37724,77.419113 C 112.25224,77.40352 112.17411,77.395708 112.14286,77.395676 C 112.01786,77.395708 111.95536,77.333208 111.95536,77.208176 L 111.95536,76.645676 C 111.95536,76.520709 112.01786,76.458209 112.14286,76.458176 L 125.50224,76.458176 C 125.59597,76.458209 125.65066,76.481646 125.6663,76.528488 C 125.68191,76.559771 125.68972,76.598834 125.68974,76.645676 L 125.68974,77.208176 C 125.68972,77.239458 125.6741,77.27852 125.64286,77.325363 C 125.62722,77.37227 125.58035,77.395708 125.50224,77.395676 L 125.08036,77.395676 C 124.47097,77.395708 123.97879,77.46602 123.6038,77.606613 C 123.24441,77.74727 122.96316,77.926957 122.76005,78.145676 C 122.55691,78.348832 122.4241,78.567582 122.36161,78.801926 C 122.2991,79.036331 122.26785,79.247268 122.26786,79.434738 C 122.26785,79.778518 122.31473,80.09883 122.40849,80.395676 C 122.51785,80.692579 122.6116,81.005079 122.68974,81.333176 L 131.6663,102.94255 C 131.7444,103.09881 131.89284,103.17693 132.11161,103.17693 C 132.20534,103.17693 132.27565,103.15349 132.32255,103.10661 C 132.3694,103.05974 132.41628,102.99724 132.46317,102.91911 L 137.64286,90.731613 L 133.07255,79.692551 C 132.97878,79.458206 132.77565,79.231643 132.46317,79.012863 C 132.16628,78.794144 131.83034,78.598832 131.45536,78.426926 C 131.09597,78.239457 130.73659,78.083207 130.37724,77.958176 C 130.03347,77.833207 129.76784,77.74727 129.58036,77.700363 C 129.36159,77.62227 129.11159,77.551958 128.83036,77.489426 C 128.54909,77.426958 128.36941,77.395708 128.2913,77.395676 C 128.16628,77.395708 128.10378,77.333208 128.1038,77.208176 L 128.1038,76.645676 C 128.10378,76.520709 128.16628,76.458209 128.2913,76.458176 L 149.76005,76.458176 C 149.85376,76.458209 149.90845,76.481646 149.92411,76.528488 C 149.9397,76.575396 149.94751,76.614459 149.94755,76.645676 L 149.94755,77.208176 C 149.94751,77.255083 149.9397,77.301958 149.92411,77.348801 C 149.90845,77.380083 149.85376,77.395708 149.76005,77.395676 L 148.89286,77.395676 C 148.33032,77.395708 147.84595,77.473833 147.43974,77.630051 C 147.03345,77.786332 146.66626,78.02852 146.33817,78.356613 C 146.02564,78.684769 145.73658,79.098831 145.47099,79.598801 C 145.20533,80.09883 144.93189,80.684767 144.65067,81.356613 L 141.6038,88.505051 L 147.6038,102.94255 C 147.68189,103.09881 147.83032,103.17693 148.04911,103.17693 C 148.14282,103.17693 148.21314,103.15349 148.26005,103.10661 C 148.30689,103.05974 148.35376,102.99724 148.40067,102.91911 L 158.31474,79.598801 C 158.50219,79.161331 158.59594,78.794144 158.59599,78.497238 C 158.59594,78.09102 158.385,77.80977 157.96317,77.653488 C 157.55688,77.481645 156.86938,77.395708 155.90067,77.395676 L 154.44755,77.395676 C 154.32251,77.395708 154.26001,77.333208 154.26005,77.208176 L 154.26005,76.645676 C 154.26001,76.614459 154.26782,76.575396 154.28349,76.528488 C 154.29907,76.481646 154.35376,76.458209 154.44755,76.458176 L 164.87724,76.458176 C 164.97093,76.458209 165.02562,76.481646 165.0413,76.528488 C 165.05687,76.575396 165.06468,76.614459 165.06474,76.645676 L 165.06474,77.208176 C 165.06468,77.255083 165.05687,77.301958 165.0413,77.348801 C 165.02562,77.380083 164.97093,77.395708 164.87724,77.395676 L 163.77567,77.395676 C 163.40062,77.395708 163.08031,77.473833 162.81474,77.630051 C 162.54906,77.770707 162.30687,77.989457 162.08817,78.286301 C 161.86937,78.583207 161.65062,78.966019 161.43192,79.434738 C 161.22875,79.887893 160.99437,80.419142 160.7288,81.028488 L 149.48956,107.47473 C 148.69163,108.95369 149.25926,109.15647 151.60936,109.15125 C 151.8281,109.15128 152.14842,109.14347 152.5703,109.12781 C 153.00779,109.11222 153.49216,109.09659 154.02342,109.08093 C 154.57029,109.06534 155.1406,109.04972 155.73436,109.03406 C 156.3281,109.00284 156.89841,108.9794 157.4453,108.96375 C 157.99216,108.94815 158.48435,108.93253 158.92186,108.91687 C 159.35935,108.90128 159.7031,108.89347 159.95311,108.89343 C 160.74997,108.89347 161.63278,108.92472 162.60155,108.98718 C 163.5859,109.03409 164.57028,109.15128 165.55467,109.33875 C 166.55465,109.52628 167.5234,109.79972 168.46092,110.15906 C 169.3984,110.50284 170.22652,110.97159 170.9453,111.56531 C 171.67965,112.14346 172.26558,112.86221 172.70311,113.72156 C 173.14058,114.58096 173.35933,115.61221 173.35936,116.81531 C 173.35933,117.53408 173.24214,118.19033 173.0078,118.78406 C 172.78902,119.37783 172.49996,119.90908 172.14061,120.37781 C 171.79683,120.83095 171.42183,121.22939 171.01561,121.57312 C 170.60933,121.90127 170.22652,122.18252 169.86717,122.41687 C 169.5234,122.63564 169.21871,122.7997 168.95311,122.90906 C 168.70309,123.01845 168.56246,123.08095 168.53123,123.09656 C 169.42184,123.59658 170.26558,124.14345 171.06248,124.73718 C 171.87496,125.33095 172.58589,126.00282 173.1953,126.75281 C 173.80464,127.4872 174.28121,128.2997 174.62498,129.19031 C 174.98433,130.08094 175.16402,131.06532 175.16405,132.14343 C 175.16402,133.40907 174.99214,134.52625 174.64842,135.495 C 174.30464,136.46375 173.85152,137.3075 173.28905,138.02625 C 172.72652,138.745 172.07808,139.35437 171.34373,139.85437 C 170.62496,140.33875 169.88277,140.745 169.11717,141.07312 C 168.35152,141.38562 167.5859,141.63562 166.8203,141.82312 C 166.07028,141.995 165.38278,142.12 164.7578,142.19812 C 164.13278,142.27625 163.60153,142.32312 163.16405,142.33875 C 162.74215,142.35437 162.46872,142.36218 162.34373,142.36218 L 145.42186,142.36218 C 145.34373,142.36218 145.28905,142.33875 145.2578,142.29187 C 145.24217,142.245 145.23436,142.20593 145.23436,142.17468 L 145.11341,141.49289 C 145.08193,141.2098 145.24217,141.54187 145.2578,141.495 C 145.28905,141.44812 145.34373,141.42468 145.42186,141.42468 C 145.71873,141.42468 146.09373,141.40906 146.54686,141.37781 C 146.99998,141.34656 147.47654,141.29187 147.97655,141.21375 C 148.49217,141.12 149.00779,140.995 149.52342,140.83875 C 150.03904,140.6825 150.49998,140.48718 150.90623,140.25281 C 151.31248,140.01843 151.6406,139.73719 151.89061,139.40906 C 152.15623,139.08094 152.28904,138.69031 152.28905,138.23718 L 152.28905,113.51062 C 152.22654,112.71377 152.07029,112.09659 151.8203,111.65906 C 151.58592,111.20596 151.27342,110.87003 150.8828,110.65125 C 150.50779,110.43253 150.06248,110.29971 149.54686,110.25281 C 149.04686,110.19034 148.49217,110.15909 147.8828,110.15906 C 146.60832,110.15089 147.48246,110.17945 146.36817,110.15307 C 145.84595,110.13786 145.59595,109.96599 145.47099,109.62224 L 139.14286,94.294113 M 142.65849,78.497238 C 142.65845,78.137895 142.50221,77.880082 142.18974,77.723801 C 141.87721,77.551958 141.36158,77.450395 140.64286,77.419113 C 140.11158,77.450395 139.6819,77.544145 139.3538,77.700363 C 139.04127,77.84102 138.79908,78.012895 138.62724,78.215988 C 138.45533,78.403519 138.33815,78.614457 138.27567,78.848801 C 138.22877,79.067581 138.20533,79.262893 138.20536,79.434738 C 138.20533,79.778518 138.25221,80.09883 138.34599,80.395676 C 138.45533,80.692579 138.54908,81.005079 138.62724,81.333176 L 140.1038,84.919113 L 142.37724,79.598801 C 142.5647,79.161331 142.65845,78.794144 142.65849,78.497238 M 156.97655,137.1825 C 156.97654,137.79187 157.13279,138.32312 157.4453,138.77625 C 157.75778,139.22937 158.15622,139.61219 158.64061,139.92468 C 159.12497,140.23718 159.66403,140.47156 160.2578,140.62781 C 160.86716,140.78406 161.46872,140.86218 162.06248,140.86218 C 163.15622,140.86218 164.19528,140.64343 165.17967,140.20593 C 166.17965,139.75281 167.05465,139.15125 167.80467,138.40125 C 168.55465,137.63562 169.1484,136.75281 169.58592,135.75281 C 170.0234,134.73719 170.24215,133.67469 170.24217,132.56531 C 170.24215,131.23719 169.99996,130.04969 169.51561,129.00281 C 169.04684,127.94032 168.3984,127.0497 167.5703,126.33093 C 166.74215,125.59657 165.76559,125.04189 164.64061,124.66687 C 163.51559,124.27626 162.30465,124.08095 161.0078,124.08093 L 157.28123,124.08093 C 157.12497,124.08095 157.03122,124.1122 156.99998,124.17468 C 156.98435,124.22158 156.97654,124.27626 156.97655,124.33875 L 156.97655,137.1825 M 156.92967,122.1825 C 156.92966,122.22939 156.9531,122.31533 156.99998,122.44031 C 157.04685,122.56533 157.2031,122.62783 157.46873,122.62781 L 163.23436,122.62781 C 163.98434,122.62783 164.67965,122.47939 165.3203,122.1825 C 165.97653,121.88564 166.53903,121.47939 167.0078,120.96375 C 167.49215,120.44814 167.86715,119.84658 168.1328,119.15906 C 168.41402,118.47158 168.55465,117.73721 168.55467,116.95593 C 168.55465,115.76846 168.35934,114.75284 167.96873,113.90906 C 167.59371,113.06534 167.06246,112.37784 166.37498,111.84656 C 165.70309,111.29971 164.8984,110.90128 163.96092,110.65125 C 163.03903,110.38565 162.02341,110.25284 160.91405,110.25281 C 160.10153,110.29971 159.43747,110.32315 158.92186,110.32312 C 158.40622,110.30753 157.99997,110.32315 157.70311,110.37 C 157.40622,110.4169 157.2031,110.51846 157.09373,110.67468 C 156.98435,110.83096 156.92966,111.08878 156.92967,111.44812 L 156.92967,122.1825"
         sodipodi:nodetypes="ccsccccscssssssccccsccsccsssssccsscccscssssccccsccsccssscccssccscccccsccsccsccssscccsscssscsccsscssssccccssssccssccsccssssssscccsccccccscssssscccccssssccsscccccscccsccsccscccccsscc" />
    </g>
    <g
       id="g3273"
       style="fill:#ffffff;fill-opacity:1"
       inkscape:export-xdpi="72.571426"
       inkscape:export-ydpi="72.571426">
      <text
         id="text2268"
         y="101.29076"
         x="159.28571"
         style="font-size:48px;font-style:normal;font-weight:normal;fill:#ffffff;fill-opacity:1;stroke:none;stroke-width:1px;stroke-linecap:butt;stroke-linejoin:miter;stroke-opacity:1;font-family:Cardo"
         xml:space="preserve"><tspan
           y="101.29076"
           x="159.28571"
           id="tspan2270"
           sodipodi:role="line">illi</tspan></text>
      <text
         id="text2276"
         y="142.71931"
         x="177.14285"
         style="font-size:48px;font-style:normal;font-weight:normal;fill:#ffffff;fill-opacity:1;stroke:none;stroke-width:1px;stroke-linecap:butt;stroke-linejoin:miter;stroke-opacity:1;font-family:Cardo"
         xml:space="preserve"><tspan
           y="142.71931"
           x="177.14285"
           id="tspan2278"
           sodipodi:role="line">allenthin</tspan></text>
    </g>
  </g>
</svg>
